# Blender 4.2.2 LTS
# www.blender.org
mtllib Room.mtl
o Plane
v -3.000000 -2.500000 3.000000
v 3.000000 -2.500000 3.000000
v -3.000000 -2.500000 -3.000000
v 3.000000 -2.500000 -3.000000
vn -0.0000 1.0000 -0.0000
vt 0.000000 0.000000
vt 1.000000 0.000000
vt 1.000000 1.000000
vt 0.000000 1.000000
s 0
f 1/1/1 2/2/1 4/3/1 3/4/1
o Plane.001
v -3.000000 -3.000000 -2.500000
v 3.000000 -3.000000 -2.500000
v -3.000000 3.000000 -2.500000
v 3.000000 3.000000 -2.500000
vn -0.0000 -0.0000 1.0000
vt 0.000000 0.000000
vt 1.000000 0.000000
vt 1.000000 1.000000
vt 0.000000 1.000000
s 0
f 5/5/2 6/6/2 8/7/2 7/8/2
o Plane.002
v 3.000000 -3.000000 2.499999
v -3.000000 -3.000000 2.500001
v 3.000000 3.000000 2.499999
v -3.000000 3.000000 2.500001
vn -0.0000 -0.0000 -1.0000
vt 0.000000 0.000000
vt 1.000000 0.000000
vt 1.000000 1.000000
vt 0.000000 1.000000
s 0
f 9/9/3 10/10/3 12/11/3 11/12/3
o Plane.003
v -3.000000 2.500001 -3.000000
v 3.000000 2.500001 -3.000000
v -3.000000 2.499999 3.000000
v 3.000000 2.499999 3.000000
vn -0.0000 -1.0000 -0.0000
vt 0.000000 0.000000
vt 1.000000 0.000000
vt 1.000000 1.000000
vt 0.000000 1.000000
s 0
f 13/13/4 14/14/4 16/15/4 15/16/4
o Plane.004
v 2.500001 3.000000 -3.000000
v 2.500002 -3.000000 -3.000000
v 2.499998 3.000000 3.000000
v 2.499999 -3.000000 3.000000
vn -1.0000 -0.0000 -0.0000
vt 0.000000 0.000000
vt 1.000000 0.000000
vt 1.000000 1.000000
vt 0.000000 1.000000
s 0
f 17/17/5 18/18/5 20/19/5 19/20/5
o Plane.005
v -2.500002 3.000000 3.000000
v -2.500001 -3.000000 3.000000
v -2.499999 3.000000 -3.000000
v -2.499998 -3.000000 -3.000000
vn 1.0000 -0.0000 -0.0000
vt 0.000000 0.000000
vt 1.000000 0.000000
vt 1.000000 1.000000
vt 0.000000 1.000000
s 0
f 21/21/6 22/22/6 24/23/6 23/24/6
o Cube
v -2.582037 -2.804265 -1.544796
v -2.582037 1.501430 -1.544796
v -2.582037 -2.804265 -2.346626
v -2.582037 1.501430 -2.346626
v -1.780208 -2.804265 -1.544796
v -1.780208 1.501430 -1.544796
v -1.780208 -2.804265 -2.346626
v -1.780208 1.501430 -2.346626
vn -1.0000 -0.0000 -0.0000
vn -0.0000 -0.0000 -1.0000
vn 1.0000 -0.0000 -0.0000
vn -0.0000 -0.0000 1.0000
vn -0.0000 -1.0000 -0.0000
vn -0.0000 1.0000 -0.0000
vt 0.375000 0.000000
vt 0.625000 0.000000
vt 0.625000 0.250000
vt 0.375000 0.250000
vt 0.625000 0.500000
vt 0.375000 0.500000
vt 0.625000 0.750000
vt 0.375000 0.750000
vt 0.625000 1.000000
vt 0.375000 1.000000
vt 0.125000 0.500000
vt 0.125000 0.750000
vt 0.875000 0.500000
vt 0.875000 0.750000
s 0
f 25/25/7 26/26/7 28/27/7 27/28/7
f 27/28/8 28/27/8 32/29/8 31/30/8
f 31/30/9 32/29/9 30/31/9 29/32/9
f 29/32/10 30/31/10 26/33/10 25/34/10
f 27/35/11 31/30/11 29/32/11 25/36/11
f 32/29/12 28/37/12 26/38/12 30/31/12
o Cylinder
v -1.361714 -2.662536 0.657955
v -1.361714 -1.959840 0.657955
v -1.222924 -2.662536 0.671624
v -1.222924 -1.959840 0.671624
v -1.089468 -2.662536 0.712108
v -1.089468 -1.959840 0.712108
v -0.966473 -2.662536 0.777850
v -0.966473 -1.959840 0.777850
v -0.858668 -2.662536 0.866323
v -0.858668 -1.959840 0.866323
v -0.770195 -2.662536 0.974128
v -0.770195 -1.959840 0.974128
v -0.704453 -2.662536 1.097123
v -0.704453 -1.959840 1.097123
v -0.663969 -2.662536 1.230579
v -0.663969 -1.959840 1.230579
v -0.650300 -2.662536 1.369369
v -0.650300 -1.959840 1.369369
v -0.663969 -2.662536 1.508159
v -0.663969 -1.959840 1.508159
v -0.704453 -2.662536 1.641616
v -0.704453 -1.959840 1.641616
v -0.770195 -2.662536 1.764610
v -0.770195 -1.959840 1.764610
v -0.858668 -2.662536 1.872415
v -0.858668 -1.959840 1.872415
v -0.966473 -2.662536 1.960888
v -0.966473 -1.959840 1.960888
v -1.089468 -2.662536 2.026630
v -1.089468 -1.959840 2.026630
v -1.222924 -2.662536 2.067114
v -1.222924 -1.959840 2.067114
v -1.361714 -2.662536 2.080783
v -1.361714 -1.959840 2.080783
v -1.500504 -2.662536 2.067114
v -1.500504 -1.959840 2.067114
v -1.633960 -2.662536 2.026630
v -1.633960 -1.959840 2.026630
v -1.756955 -2.662536 1.960888
v -1.756955 -1.959840 1.960888
v -1.864760 -2.662536 1.872415
v -1.864760 -1.959840 1.872415
v -1.953233 -2.662536 1.764610
v -1.953233 -1.959840 1.764610
v -2.018975 -2.662536 1.641616
v -2.018975 -1.959840 1.641616
v -2.059459 -2.662536 1.508159
v -2.059459 -1.959840 1.508159
v -2.073128 -2.662536 1.369369
v -2.073128 -1.959840 1.369369
v -2.059459 -2.662536 1.230579
v -2.059459 -1.959840 1.230579
v -2.018975 -2.662536 1.097123
v -2.018975 -1.959840 1.097123
v -1.953233 -2.662536 0.974128
v -1.953233 -1.959840 0.974128
v -1.864760 -2.662536 0.866323
v -1.864760 -1.959840 0.866323
v -1.756955 -2.662536 0.777850
v -1.756955 -1.959840 0.777850
v -1.633960 -2.662536 0.712108
v -1.633960 -1.959840 0.712108
v -1.500504 -2.662536 0.671624
v -1.500504 -1.959840 0.671624
vn 0.0980 -0.0000 -0.9952
vn 0.2903 -0.0000 -0.9569
vn 0.4714 -0.0000 -0.8819
vn 0.6344 -0.0000 -0.7730
vn 0.7730 -0.0000 -0.6344
vn 0.8819 -0.0000 -0.4714
vn 0.9569 -0.0000 -0.2903
vn 0.9952 -0.0000 -0.0980
vn 0.9952 -0.0000 0.0980
vn 0.9569 -0.0000 0.2903
vn 0.8819 -0.0000 0.4714
vn 0.7730 -0.0000 0.6344
vn 0.6344 -0.0000 0.7730
vn 0.4714 -0.0000 0.8819
vn 0.2903 -0.0000 0.9569
vn 0.0980 -0.0000 0.9952
vn -0.0980 -0.0000 0.9952
vn -0.2903 -0.0000 0.9569
vn -0.4714 -0.0000 0.8819
vn -0.6344 -0.0000 0.7730
vn -0.7730 -0.0000 0.6344
vn -0.8819 -0.0000 0.4714
vn -0.9569 -0.0000 0.2903
vn -0.9952 -0.0000 0.0980
vn -0.9952 -0.0000 -0.0980
vn -0.9569 -0.0000 -0.2903
vn -0.8819 -0.0000 -0.4714
vn -0.7730 -0.0000 -0.6344
vn -0.6344 -0.0000 -0.7730
vn -0.4714 -0.0000 -0.8819
vn -0.0000 1.0000 -0.0000
vn -0.2903 -0.0000 -0.9569
vn -0.0980 -0.0000 -0.9952
vn -0.0000 -1.0000 -0.0000
vt 1.000000 0.500000
vt 1.000000 1.000000
vt 0.968750 1.000000
vt 0.968750 0.500000
vt 0.937500 1.000000
vt 0.937500 0.500000
vt 0.906250 1.000000
vt 0.906250 0.500000
vt 0.875000 1.000000
vt 0.875000 0.500000
vt 0.843750 1.000000
vt 0.843750 0.500000
vt 0.812500 1.000000
vt 0.812500 0.500000
vt 0.781250 1.000000
vt 0.781250 0.500000
vt 0.750000 1.000000
vt 0.750000 0.500000
vt 0.718750 1.000000
vt 0.718750 0.500000
vt 0.687500 1.000000
vt 0.687500 0.500000
vt 0.656250 1.000000
vt 0.656250 0.500000
vt 0.625000 1.000000
vt 0.625000 0.500000
vt 0.593750 1.000000
vt 0.593750 0.500000
vt 0.562500 1.000000
vt 0.562500 0.500000
vt 0.531250 1.000000
vt 0.531250 0.500000
vt 0.500000 1.000000
vt 0.500000 0.500000
vt 0.468750 1.000000
vt 0.468750 0.500000
vt 0.437500 1.000000
vt 0.437500 0.500000
vt 0.406250 1.000000
vt 0.406250 0.500000
vt 0.375000 1.000000
vt 0.375000 0.500000
vt 0.343750 1.000000
vt 0.343750 0.500000
vt 0.312500 1.000000
vt 0.312500 0.500000
vt 0.281250 1.000000
vt 0.281250 0.500000
vt 0.250000 1.000000
vt 0.250000 0.500000
vt 0.218750 1.000000
vt 0.218750 0.500000
vt 0.187500 1.000000
vt 0.187500 0.500000
vt 0.156250 1.000000
vt 0.156250 0.500000
vt 0.125000 1.000000
vt 0.125000 0.500000
vt 0.093750 1.000000
vt 0.093750 0.500000
vt 0.062500 1.000000
vt 0.062500 0.500000
vt 0.296822 0.485388
vt 0.250000 0.490000
vt 0.203178 0.485388
vt 0.158156 0.471731
vt 0.116663 0.449553
vt 0.080294 0.419706
vt 0.050447 0.383337
vt 0.028269 0.341844
vt 0.014612 0.296822
vt 0.010000 0.250000
vt 0.014612 0.203178
vt 0.028269 0.158156
vt 0.050447 0.116663
vt 0.080294 0.080294
vt 0.116663 0.050447
vt 0.158156 0.028269
vt 0.203178 0.014612
vt 0.250000 0.010000
vt 0.296822 0.014612
vt 0.341844 0.028269
vt 0.383337 0.050447
vt 0.419706 0.080294
vt 0.449553 0.116663
vt 0.471731 0.158156
vt 0.485388 0.203178
vt 0.490000 0.250000
vt 0.485388 0.296822
vt 0.471731 0.341844
vt 0.449553 0.383337
vt 0.419706 0.419706
vt 0.383337 0.449553
vt 0.341844 0.471731
vt 0.031250 1.000000
vt 0.031250 0.500000
vt 0.000000 1.000000
vt 0.000000 0.500000
vt 0.750000 0.490000
vt 0.796822 0.485388
vt 0.841844 0.471731
vt 0.883337 0.449553
vt 0.919706 0.419706
vt 0.949553 0.383337
vt 0.971731 0.341844
vt 0.985388 0.296822
vt 0.990000 0.250000
vt 0.985388 0.203178
vt 0.971731 0.158156
vt 0.949553 0.116663
vt 0.919706 0.080294
vt 0.883337 0.050447
vt 0.841844 0.028269
vt 0.796822 0.014612
vt 0.750000 0.010000
vt 0.703178 0.014612
vt 0.658156 0.028269
vt 0.616663 0.050447
vt 0.580294 0.080294
vt 0.550447 0.116663
vt 0.528269 0.158156
vt 0.514612 0.203178
vt 0.510000 0.250000
vt 0.514612 0.296822
vt 0.528269 0.341844
vt 0.550447 0.383337
vt 0.580294 0.419706
vt 0.616663 0.449553
vt 0.658156 0.471731
vt 0.703178 0.485388
s 0
f 33/39/13 34/40/13 36/41/13 35/42/13
f 35/42/14 36/41/14 38/43/14 37/44/14
f 37/44/15 38/43/15 40/45/15 39/46/15
f 39/46/16 40/45/16 42/47/16 41/48/16
f 41/48/17 42/47/17 44/49/17 43/50/17
f 43/50/18 44/49/18 46/51/18 45/52/18
f 45/52/19 46/51/19 48/53/19 47/54/19
f 47/54/20 48/53/20 50/55/20 49/56/20
f 49/56/21 50/55/21 52/57/21 51/58/21
f 51/58/22 52/57/22 54/59/22 53/60/22
f 53/60/23 54/59/23 56/61/23 55/62/23
f 55/62/24 56/61/24 58/63/24 57/64/24
f 57/64/25 58/63/25 60/65/25 59/66/25
f 59/66/26 60/65/26 62/67/26 61/68/26
f 61/68/27 62/67/27 64/69/27 63/70/27
f 63/70/28 64/69/28 66/71/28 65/72/28
f 65/72/29 66/71/29 68/73/29 67/74/29
f 67/74/30 68/73/30 70/75/30 69/76/30
f 69/76/31 70/75/31 72/77/31 71/78/31
f 71/78/32 72/77/32 74/79/32 73/80/32
f 73/80/33 74/79/33 76/81/33 75/82/33
f 75/82/34 76/81/34 78/83/34 77/84/34
f 77/84/35 78/83/35 80/85/35 79/86/35
f 79/86/36 80/85/36 82/87/36 81/88/36
f 81/88/37 82/87/37 84/89/37 83/90/37
f 83/90/38 84/89/38 86/91/38 85/92/38
f 85/92/39 86/91/39 88/93/39 87/94/39
f 87/94/40 88/93/40 90/95/40 89/96/40
f 89/96/41 90/95/41 92/97/41 91/98/41
f 91/98/42 92/97/42 94/99/42 93/100/42
f 36/101/43 34/102/43 96/103/43 94/104/43 92/105/43 90/106/43 88/107/43 86/108/43 84/109/43 82/110/43 80/111/43 78/112/43 76/113/43 74/114/43 72/115/43 70/116/43 68/117/43 66/118/43 64/119/43 62/120/43 60/121/43 58/122/43 56/123/43 54/124/43 52/125/43 50/126/43 48/127/43 46/128/43 44/129/43 42/130/43 40/131/43 38/132/43
f 93/100/44 94/99/44 96/133/44 95/134/44
f 95/134/45 96/133/45 34/135/45 33/136/45
f 33/137/46 35/138/46 37/139/46 39/140/46 41/141/46 43/142/46 45/143/46 47/144/46 49/145/46 51/146/46 53/147/46 55/148/46 57/149/46 59/150/46 61/151/46 63/152/46 65/153/46 67/154/46 69/155/46 71/156/46 73/157/46 75/158/46 77/159/46 79/160/46 81/161/46 83/162/46 85/163/46 87/164/46 89/165/46 91/166/46 93/167/46 95/168/46
o Icosphere
v 2.299777 -2.718845 0.946169
v 2.693805 -2.417837 1.232444
v 2.149274 -2.417837 1.409376
v 1.812731 -2.417835 0.946169
v 2.149274 -2.417837 0.482962
v 2.693805 -2.417837 0.659894
v 2.450279 -1.930785 1.409376
v 1.905748 -1.930785 1.232444
v 1.905748 -1.930785 0.659894
v 2.450279 -1.930785 0.482962
v 2.786822 -1.930787 0.946169
v 2.299777 -1.629777 0.946169
v 2.211314 -2.637521 1.218433
v 2.531379 -2.637521 1.114436
v 2.442918 -2.460593 1.386703
v 2.762983 -2.460592 0.946169
v 2.531379 -2.637521 0.777902
v 2.013499 -2.637519 0.946169
v 1.925034 -2.460592 1.218434
v 2.211314 -2.637521 0.673905
v 1.925034 -2.460592 0.673904
v 2.442918 -2.460593 0.505635
v 2.817660 -2.174311 1.114437
v 2.817660 -2.174311 0.777901
v 2.299777 -2.174311 1.490703
v 2.619846 -2.174311 1.386706
v 1.781893 -2.174311 1.114437
v 1.979707 -2.174311 1.386706
v 1.979707 -2.174311 0.505632
v 1.781893 -2.174311 0.777901
v 2.619846 -2.174311 0.505632
v 2.299777 -2.174311 0.401635
v 2.674519 -1.888030 1.218434
v 2.156636 -1.888029 1.386703
v 1.836570 -1.888030 0.946169
v 2.156636 -1.888029 0.505635
v 2.674519 -1.888030 0.673904
v 2.388239 -1.711101 1.218433
v 2.586054 -1.711102 0.946169
v 2.068174 -1.711101 1.114436
v 2.068174 -1.711101 0.777902
v 2.388239 -1.711101 0.673905
vn 0.1024 -0.9435 0.3151
vn 0.7002 -0.6617 0.2680
vn -0.2680 -0.9435 0.1947
vn -0.2680 -0.9435 -0.1947
vn 0.1024 -0.9435 -0.3151
vn 0.9050 -0.3304 0.2680
vn 0.0247 -0.3304 0.9435
vn -0.8897 -0.3304 0.3151
vn -0.5746 -0.3304 -0.7488
vn 0.5346 -0.3304 -0.7779
vn 0.8026 -0.1256 0.5831
vn -0.3066 -0.1256 0.9435
vn -0.9921 -0.1256 -0.0000
vn -0.3066 -0.1256 -0.9435
vn 0.8026 -0.1256 -0.5831
vn 0.4089 0.6617 0.6284
vn -0.4713 0.6617 0.5831
vn -0.7002 0.6617 -0.2680
vn 0.0385 0.6617 -0.7488
vn 0.7240 0.6617 -0.1947
vn 0.2680 0.9435 -0.1947
vn 0.4911 0.7947 -0.3568
vn 0.4089 0.6617 -0.6284
vn -0.1024 0.9435 -0.3151
vn -0.1876 0.7947 -0.5773
vn -0.4713 0.6617 -0.5831
vn -0.3313 0.9435 -0.0000
vn -0.6071 0.7947 -0.0000
vn -0.7002 0.6617 0.2680
vn -0.1024 0.9435 0.3151
vn -0.1876 0.7947 0.5773
vn 0.0385 0.6617 0.7488
vn 0.2680 0.9435 0.1947
vn 0.4911 0.7947 0.3568
vn 0.7240 0.6617 0.1947
vn 0.8897 0.3304 -0.3151
vn 0.7947 0.1876 -0.5773
vn 0.5746 0.3304 -0.7488
vn -0.0247 0.3304 -0.9435
vn -0.3035 0.1876 -0.9342
vn -0.5346 0.3304 -0.7779
vn -0.9050 0.3304 -0.2680
vn -0.9822 0.1876 -0.0000
vn -0.9050 0.3304 0.2680
vn -0.5346 0.3304 0.7779
vn -0.3035 0.1876 0.9342
vn -0.0247 0.3304 0.9435
vn 0.5746 0.3304 0.7488
vn 0.7947 0.1876 0.5773
vn 0.8897 0.3304 0.3151
vn 0.3066 0.1256 -0.9435
vn 0.3035 -0.1876 -0.9342
vn 0.0247 -0.3304 -0.9435
vn -0.8026 0.1256 -0.5831
vn -0.7947 -0.1876 -0.5773
vn -0.8897 -0.3304 -0.3151
vn -0.8026 0.1256 0.5831
vn -0.7947 -0.1876 0.5773
vn -0.5746 -0.3304 0.7488
vn 0.3066 0.1256 0.9435
vn 0.3035 -0.1876 0.9342
vn 0.5346 -0.3304 0.7779
vn 0.9921 0.1256 -0.0000
vn 0.9822 -0.1876 -0.0000
vn 0.9050 -0.3304 -0.2680
vn 0.4713 -0.6617 -0.5831
vn 0.1876 -0.7947 -0.5773
vn -0.0385 -0.6617 -0.7488
vn -0.4089 -0.6617 -0.6284
vn -0.4911 -0.7947 -0.3568
vn -0.7240 -0.6617 -0.1947
vn -0.7240 -0.6617 0.1947
vn -0.4911 -0.7947 0.3568
vn -0.4089 -0.6617 0.6284
vn 0.7002 -0.6617 -0.2680
vn 0.6071 -0.7947 -0.0000
vn 0.3313 -0.9435 -0.0000
vn -0.0385 -0.6617 0.7488
vn 0.1876 -0.7947 0.5773
vn 0.4713 -0.6617 0.5831
vt 0.181819 0.000000
vt 0.227273 0.078731
vt 0.136365 0.078731
vt 0.272728 0.157461
vt 0.318182 0.078731
vt 0.363637 0.157461
vt 0.909091 0.000000
vt 0.954545 0.078731
vt 0.863636 0.078731
vt 0.727273 0.000000
vt 0.772727 0.078731
vt 0.681818 0.078731
vt 0.545455 0.000000
vt 0.590909 0.078731
vt 0.500000 0.078731
vt 0.318182 0.236191
vt 0.090910 0.157461
vt 0.181819 0.157461
vt 0.136365 0.236191
vt 0.818182 0.157461
vt 0.909091 0.157461
vt 0.863636 0.236191
vt 0.636364 0.157461
vt 0.727273 0.157461
vt 0.681818 0.236191
vt 0.454546 0.157461
vt 0.545455 0.157461
vt 0.500000 0.236191
vt 0.227273 0.236191
vt 0.045455 0.236191
vt 0.772727 0.236191
vt 0.590909 0.236191
vt 0.409092 0.236191
vt 0.181819 0.314921
vt 0.272728 0.314921
vt 0.227273 0.393651
vt 0.000000 0.314921
vt 0.090910 0.314921
vt 0.045455 0.393651
vt 0.727273 0.314921
vt 0.818182 0.314921
vt 0.772727 0.393651
vt 0.545455 0.314921
vt 0.636364 0.314921
vt 0.590909 0.393651
vt 0.363637 0.314921
vt 0.454546 0.314921
vt 0.409092 0.393651
vt 0.500000 0.393651
vt 0.454546 0.472382
vt 0.681818 0.393651
vt 0.636364 0.472382
vt 0.863636 0.393651
vt 0.818182 0.472382
vt 0.909091 0.314921
vt 0.136365 0.393651
vt 0.090910 0.472382
vt 0.318182 0.393651
vt 0.272728 0.472382
vt 0.954545 0.236191
vt 1.000000 0.157461
vt 0.409092 0.078731
vt 0.363637 0.000000
s 0
f 97/169/47 110/170/47 109/171/47
f 98/172/48 110/173/48 112/174/48
f 97/175/49 109/176/49 114/177/49
f 97/178/50 114/179/50 116/180/50
f 97/181/51 116/182/51 113/183/51
f 98/172/52 112/174/52 119/184/52
f 99/185/53 111/186/53 121/187/53
f 100/188/54 115/189/54 123/190/54
f 101/191/55 117/192/55 125/193/55
f 102/194/56 118/195/56 127/196/56
f 98/172/57 119/184/57 122/197/57
f 99/185/58 121/187/58 124/198/58
f 100/188/59 123/190/59 126/199/59
f 101/191/60 125/193/60 128/200/60
f 102/194/61 127/196/61 120/201/61
f 103/202/62 129/203/62 134/204/62
f 104/205/63 130/206/63 136/207/63
f 105/208/64 131/209/64 137/210/64
f 106/211/65 132/212/65 138/213/65
f 107/214/66 133/215/66 135/216/66
f 135/216/67 138/217/67 108/218/67
f 135/216/68 133/215/68 138/217/68
f 133/215/69 106/211/69 138/217/69
f 138/213/70 137/219/70 108/220/70
f 138/213/71 132/212/71 137/219/71
f 132/212/72 105/208/72 137/219/72
f 137/210/73 136/221/73 108/222/73
f 137/210/74 131/209/74 136/221/74
f 131/209/75 104/223/75 136/221/75
f 136/207/76 134/224/76 108/225/76
f 136/207/77 130/206/77 134/224/77
f 130/206/78 103/202/78 134/224/78
f 134/204/79 135/226/79 108/227/79
f 134/204/80 129/203/80 135/226/80
f 129/203/81 107/214/81 135/226/81
f 120/201/82 133/215/82 107/214/82
f 120/201/83 127/196/83 133/215/83
f 127/196/84 106/211/84 133/215/84
f 128/200/85 132/212/85 106/211/85
f 128/200/86 125/193/86 132/212/86
f 125/193/87 105/208/87 132/212/87
f 126/199/88 131/209/88 105/208/88
f 126/199/89 123/190/89 131/209/89
f 123/190/90 104/223/90 131/209/90
f 124/198/91 130/206/91 104/205/91
f 124/198/92 121/187/92 130/206/92
f 121/187/93 103/202/93 130/206/93
f 122/197/94 129/203/94 103/202/94
f 122/197/95 119/184/95 129/203/95
f 119/184/96 107/214/96 129/203/96
f 127/196/97 128/200/97 106/211/97
f 127/196/98 118/195/98 128/200/98
f 118/195/99 101/191/99 128/200/99
f 125/193/100 126/199/100 105/208/100
f 125/193/101 117/192/101 126/199/101
f 117/192/102 100/188/102 126/199/102
f 123/190/103 124/228/103 104/223/103
f 123/190/104 115/189/104 124/228/104
f 115/189/105 99/229/105 124/228/105
f 121/187/106 122/197/106 103/202/106
f 121/187/107 111/186/107 122/197/107
f 111/186/108 98/172/108 122/197/108
f 119/184/109 120/201/109 107/214/109
f 119/184/110 112/174/110 120/201/110
f 112/174/111 102/194/111 120/201/111
f 113/183/112 118/195/112 102/194/112
f 113/183/113 116/182/113 118/195/113
f 116/182/114 101/191/114 118/195/114
f 116/180/115 117/192/115 101/191/115
f 116/180/116 114/179/116 117/192/116
f 114/179/117 100/188/117 117/192/117
f 114/177/118 115/189/118 100/188/118
f 114/177/119 109/176/119 115/189/119
f 109/176/120 99/229/120 115/189/120
f 112/174/121 113/230/121 102/194/121
f 112/174/122 110/173/122 113/230/122
f 110/173/123 97/231/123 113/230/123
f 109/171/124 111/186/124 99/185/124
f 109/171/125 110/170/125 111/186/125
f 110/170/126 98/172/126 111/186/126
o Cube.001
v 0.719289 -1.558574 1.717745
v 0.501415 -1.079400 1.860600
v 0.554453 -1.480288 1.203756
v 0.336579 -1.001114 1.346611
v 1.191352 -1.310083 1.604202
v 0.973478 -0.830909 1.747058
v 1.026516 -1.231796 1.090214
v 0.808643 -0.752623 1.233069
vn -0.8655 -0.4556 0.2082
vn -0.3022 0.1435 -0.9424
vn 0.8655 0.4556 -0.2082
vn 0.3022 -0.1435 0.9424
vn 0.3995 -0.8785 -0.2619
vn -0.3995 0.8785 0.2619
vt 0.375000 0.000000
vt 0.625000 0.000000
vt 0.625000 0.250000
vt 0.375000 0.250000
vt 0.625000 0.500000
vt 0.375000 0.500000
vt 0.625000 0.750000
vt 0.375000 0.750000
vt 0.625000 1.000000
vt 0.375000 1.000000
vt 0.125000 0.500000
vt 0.125000 0.750000
vt 0.875000 0.500000
vt 0.875000 0.750000
s 0
f 139/232/127 140/233/127 142/234/127 141/235/127
f 141/235/128 142/234/128 146/236/128 145/237/128
f 145/237/129 146/236/129 144/238/129 143/239/129
f 143/239/130 144/238/130 140/240/130 139/241/130
f 141/242/131 145/237/131 143/239/131 139/243/131
f 146/236/132 142/244/132 140/245/132 144/238/132
