<svg version="1.1" xmlns="http://www.w3.org/2000/svg" viewBox="0 0 2132.2121828798863 938.65203162091" width="2132.2121828798863" height="938.65203162091" filter="invert(93%) hue-rotate(180deg)">
  <!-- svg-source:excalidraw -->
  
  <defs>
    <style class="style-fonts">
      @font-face {
        font-family: "Virgil";
        src: url("https://excalidraw.com/Virgil.woff2");
      }
      @font-face {
        font-family: "Cascadia";
        src: url("https://excalidraw.com/Cascadia.woff2");
      }
      @font-face {
        font-family: "Assistant";
        src: url("https://excalidraw.com/Assistant-Regular.woff2");
      }
    </style>
    
  </defs>
  <rect x="0" y="0" width="2132.2121828798863" height="938.65203162091" fill="#ffffff"></rect><g stroke-linecap="round" transform="translate(864.5580462324737 549.0437657072026) rotate(0 63.666656494140625 29.666656494140625)"><path d="M14.83 0 C42.69 1.23, 68.67 1.2, 112.5 0 M14.83 0 C39.3 1.11, 65.42 0.73, 112.5 0 M112.5 0 C124.21 1.98, 128.8 3.99, 127.33 14.83 M112.5 0 C121.46 1.01, 127.06 6.68, 127.33 14.83 M127.33 14.83 C128.84 25.17, 127.82 32.95, 127.33 44.5 M127.33 14.83 C127.67 22.24, 127.9 29.45, 127.33 44.5 M127.33 44.5 C128.01 52.58, 122.4 59.51, 112.5 59.33 M127.33 44.5 C127.4 55.73, 124.67 59.38, 112.5 59.33 M112.5 59.33 C92.13 59.75, 72.07 58.89, 14.83 59.33 M112.5 59.33 C93.76 59.16, 73.38 59.75, 14.83 59.33 M14.83 59.33 C3.2 60.33, 1.39 53.56, 0 44.5 M14.83 59.33 C3.99 58.97, -0.79 52.3, 0 44.5 M0 44.5 C-1.41 37.81, -0.55 30.56, 0 14.83 M0 44.5 C0.33 33.54, -0.14 21.55, 0 14.83 M0 14.83 C0.33 4.6, 5.6 -1.19, 14.83 0 M0 14.83 C0.26 4.25, 4.3 1.98, 14.83 0" stroke="#1e1e1e" stroke-width="2" fill="none"></path></g><g transform="translate(883.4747485029815 566.2104222013432) rotate(0 44.74995422363281 12.5)"><text x="44.74995422363281" y="17.52" font-family="Virgil, Segoe UI Emoji" font-size="20px" fill="#1e1e1e" text-anchor="middle" style="white-space: pre;" direction="ltr" dominant-baseline="alphabetic">Matrix M</text></g><g stroke-linecap="round" transform="translate(128.59102963183045 234.67244508887123) rotate(0 71.33334350585936 30.333343505859375)"><path d="M15.17 0 C54.04 -0.34, 90.8 0.53, 127.5 0 M15.17 0 C44.38 0.68, 75.91 -0.66, 127.5 0 M127.5 0 C138.17 0.85, 142.55 4.48, 142.67 15.17 M127.5 0 C139.07 0.78, 140.41 3.21, 142.67 15.17 M142.67 15.17 C141.56 25.85, 140.92 36.43, 142.67 45.5 M142.67 15.17 C143.64 26.83, 142.61 36.5, 142.67 45.5 M142.67 45.5 C141.93 54.37, 138 61.95, 127.5 60.67 M142.67 45.5 C144.26 57.48, 139.63 61.5, 127.5 60.67 M127.5 60.67 C87.21 59.64, 44.13 59.57, 15.17 60.67 M127.5 60.67 C86.51 60.18, 46.44 59.96, 15.17 60.67 M15.17 60.67 C5.37 59.51, -1.25 54.16, 0 45.5 M15.17 60.67 C6.69 61.92, 0.17 53.8, 0 45.5 M0 45.5 C1.94 33.28, 1.25 21.36, 0 15.17 M0 45.5 C-0.8 36.31, -0.36 29.54, 0 15.17 M0 15.17 C1.64 6.41, 6.95 1.25, 15.17 0 M0 15.17 C0.82 6.82, 5.41 1.16, 15.17 0" stroke="#1e1e1e" stroke-width="2" fill="none"></path></g><g transform="translate(145.2544207451117 252.5057885947306) rotate(0 54.669952392578125 12.5)"><text x="54.669952392578125" y="17.52" font-family="Virgil, Segoe UI Emoji" font-size="20px" fill="#1e1e1e" text-anchor="middle" style="white-space: pre;" direction="ltr" dominant-baseline="alphabetic">BRDF Lobe</text></g><g stroke-linecap="round" transform="translate(109.25765560839295 115.33911684180092) rotate(0 87.6666564941406 31.666656494140625)"><path d="M15.83 0 C57.9 1.47, 99.93 1.89, 159.5 0 M15.83 0 C53.51 -0.38, 92.41 -1.34, 159.5 0 M159.5 0 C170.15 -1.25, 174.89 4.07, 175.33 15.83 M159.5 0 C168.23 1.81, 175.29 7.44, 175.33 15.83 M175.33 15.83 C174.41 23.01, 174.07 29.62, 175.33 47.5 M175.33 15.83 C175.98 24.09, 175.65 32.86, 175.33 47.5 M175.33 47.5 C176.62 59.97, 169.01 63.88, 159.5 63.33 M175.33 47.5 C176.84 57.95, 168 62.77, 159.5 63.33 M159.5 63.33 C109.39 65.01, 58.78 64.03, 15.83 63.33 M159.5 63.33 C118.57 62.96, 78.46 61.34, 15.83 63.33 M15.83 63.33 C4.24 63.23, 1.32 56.87, 0 47.5 M15.83 63.33 C5.7 63.52, -1.59 58.2, 0 47.5 M0 47.5 C1.41 39.54, 0.89 33.68, 0 15.83 M0 47.5 C-0.56 35.82, -0.06 24.94, 0 15.83 M0 15.83 C-1.16 6.21, 4.08 0.21, 15.83 0 M0 15.83 C1.71 3.01, 5.54 -1.07, 15.83 0" stroke="#1e1e1e" stroke-width="2" fill="none"></path></g><g transform="translate(133.4543795463812 134.50577333594154) rotate(0 63.469932556152344 12.5)"><text x="63.469932556152344" y="17.52" font-family="Virgil, Segoe UI Emoji" font-size="20px" fill="#1e1e1e" text-anchor="middle" style="white-space: pre;" direction="ltr" dominant-baseline="alphabetic">Light Polygon</text></g><g stroke-linecap="round" transform="translate(517.5732250481346 164.040860638905) rotate(0 85.33331298828128 27.333343505859375)"><path d="M13.67 0 C63.68 -2.11, 113.62 -0.6, 157 0 M13.67 0 C49.16 0.07, 83.61 -0.15, 157 0 M157 0 C164.52 1.39, 169.82 6.09, 170.67 13.67 M157 0 C167.08 -1.75, 169.83 4.99, 170.67 13.67 M170.67 13.67 C172.2 22.96, 171.28 26.92, 170.67 41 M170.67 13.67 C170.13 18.74, 170.43 24.74, 170.67 41 M170.67 41 C170.05 48.8, 166.97 53.31, 157 54.67 M170.67 41 C168.66 50.66, 165.71 56.72, 157 54.67 M157 54.67 C127.21 52.74, 100.77 52.16, 13.67 54.67 M157 54.67 C127.17 55.51, 95.96 55.69, 13.67 54.67 M13.67 54.67 C4.47 55.37, -0.54 48.84, 0 41 M13.67 54.67 C4.75 52.4, -2.02 49.82, 0 41 M0 41 C0.5 35, 1.14 28.41, 0 13.67 M0 41 C0.57 30.95, 0.93 20.92, 0 13.67 M0 13.67 C-1.88 6.49, 3.56 -1.43, 13.67 0 M0 13.67 C-0.97 6.34, 3.19 1.97, 13.67 0" stroke="#1e1e1e" stroke-width="2" fill="none"></path></g><g transform="translate(537.1066036492089 178.87420414476438) rotate(0 65.79993438720703 12.5)"><text x="65.79993438720703" y="17.52" font-family="Virgil, Segoe UI Emoji" font-size="20px" fill="#1e1e1e" text-anchor="middle" style="white-space: pre;" direction="ltr" dominant-baseline="alphabetic">Inverse Of M</text></g><g stroke-linecap="round" transform="translate(1817.605045153962 210.47499002301086) rotate(0 91 33)"><path d="M16.5 0 C54.8 -0.61, 93.91 -0.92, 165.5 0 M16.5 0 C69.66 -1.82, 123.44 -1.53, 165.5 0 M165.5 0 C177.7 -0.97, 180.17 4.75, 182 16.5 M165.5 0 C178.08 -0.63, 183.36 3.44, 182 16.5 M182 16.5 C183.77 23.67, 183.17 35.14, 182 49.5 M182 16.5 C182.82 23.72, 181.18 31.39, 182 49.5 M182 49.5 C180.65 62.42, 178.03 66.92, 165.5 66 M182 49.5 C181.78 62.57, 174.35 64.35, 165.5 66 M165.5 66 C120.25 65.73, 76.97 63.89, 16.5 66 M165.5 66 C122.7 66.17, 78.75 67.7, 16.5 66 M16.5 66 C4.46 66.93, -0.85 60.42, 0 49.5 M16.5 66 C5.7 64.84, 0.92 62.46, 0 49.5 M0 49.5 C0.42 41.63, 0.4 35.06, 0 16.5 M0 49.5 C0.31 41.39, -0.36 35.05, 0 16.5 M0 16.5 C0.94 6.39, 7.27 1.33, 16.5 0 M0 16.5 C-0.3 5.2, 5.07 -0.72, 16.5 0" stroke="#1e1e1e" stroke-width="2" fill="none"></path></g><g transform="translate(1835.0151174806222 230.97499002301086) rotate(0 73.58992767333984 12.5)"><text x="73.58992767333984" y="17.52" font-family="Virgil, Segoe UI Emoji" font-size="20px" fill="#1e1e1e" text-anchor="middle" style="white-space: pre;" direction="ltr" dominant-baseline="alphabetic">Final Luminance</text></g><g stroke-linecap="round" transform="translate(762.9066295891503 83.37417362718625) rotate(0 85.33331298828125 46)"><path d="M23 0 C55.38 -0.92, 85.73 2.08, 147.67 0 M23 0 C52.38 0.91, 83.23 0.86, 147.67 0 M147.67 0 C162.53 -0.59, 169.66 7.65, 170.67 23 M147.67 0 C163.09 1.31, 169.43 7.86, 170.67 23 M170.67 23 C169.07 40.49, 169.02 59.14, 170.67 69 M170.67 23 C170.22 36.76, 171.11 51, 170.67 69 M170.67 69 C168.98 86.22, 164.86 90.4, 147.67 92 M170.67 69 C171.56 82.37, 161.27 93.5, 147.67 92 M147.67 92 C108.69 92.74, 67.13 93.14, 23 92 M147.67 92 C103.57 93.51, 58.42 93.52, 23 92 M23 92 C9.15 90.08, -1.96 83.04, 0 69 M23 92 C6.51 90.65, -1.26 82.87, 0 69 M0 69 C0.2 49.09, 0.08 34.11, 0 23 M0 69 C-0.63 57.43, -0.99 46.16, 0 23 M0 23 C1.68 8.14, 8.77 0.65, 23 0 M0 23 C-0.2 8.95, 6.99 0.97, 23 0" stroke="#1e1e1e" stroke-width="2" fill="none"></path></g><g transform="translate(779.5400219231346 104.37417362718625) rotate(0 68.69992065429688 25)"><text x="68.69992065429688" y="17.52" font-family="Virgil, Segoe UI Emoji" font-size="20px" fill="#1e1e1e" text-anchor="middle" style="white-space: pre;" direction="ltr" dominant-baseline="alphabetic">Original Light </text><text x="68.69992065429688" y="42.519999999999996" font-family="Virgil, Segoe UI Emoji" font-size="20px" fill="#1e1e1e" text-anchor="middle" style="white-space: pre;" direction="ltr" dominant-baseline="alphabetic">Polygon</text></g><g stroke-linecap="round" transform="translate(762.9066295891503 216.19628871211128) rotate(0 84.33331298828125 37.33335876464844)"><path d="M18.67 0 C65.59 -1.35, 116.36 1.36, 150 0 M18.67 0 C67.59 -1.18, 114.75 -0.21, 150 0 M150 0 C163.1 1.3, 170.11 4.42, 168.67 18.67 M150 0 C160.58 -2.01, 166.75 5.47, 168.67 18.67 M168.67 18.67 C167.24 31.17, 168.69 43.39, 168.67 56 M168.67 18.67 C168.04 28.03, 168.36 37.06, 168.67 56 M168.67 56 C168.63 70.4, 162.41 73.74, 150 74.67 M168.67 56 C166.5 68.67, 164.4 74.77, 150 74.67 M150 74.67 C102.81 75.67, 54.61 75.95, 18.67 74.67 M150 74.67 C108.42 76.52, 66.53 74.95, 18.67 74.67 M18.67 74.67 C4.57 76.48, -1.2 67.73, 0 56 M18.67 74.67 C4.72 73.2, -0.13 68.06, 0 56 M0 56 C-0.95 40.94, 0.11 28.77, 0 18.67 M0 56 C0.05 41.82, 0.12 27.01, 0 18.67 M0 18.67 C1.94 5.96, 7.57 -0.76, 18.67 0 M0 18.67 C0.2 4.41, 7.34 1.69, 18.67 0" stroke="#1e1e1e" stroke-width="2" fill="none"></path></g><g transform="translate(774.7300167351464 228.52964747675972) rotate(0 72.50992584228516 25)"><text x="72.50992584228516" y="17.52" font-family="Virgil, Segoe UI Emoji" font-size="20px" fill="#1e1e1e" text-anchor="middle" style="white-space: pre;" direction="ltr" dominant-baseline="alphabetic">Original BRDF </text><text x="72.50992584228516" y="42.519999999999996" font-family="Virgil, Segoe UI Emoji" font-size="20px" fill="#1e1e1e" text-anchor="middle" style="white-space: pre;" direction="ltr" dominant-baseline="alphabetic">Lobe</text></g><g transform="translate(704.007635805619 308.2074962261812) rotate(0 167.1697998046875 25.00000000000003)"><text x="0" y="17.52" font-family="Virgil, Segoe UI Emoji" font-size="20px" fill="#1e1e1e" text-anchor="start" style="white-space: pre;" direction="ltr" dominant-baseline="alphabetic">which is actually a clamped cosine</text><text x="0" y="42.519999999999996" font-family="Virgil, Segoe UI Emoji" font-size="20px" fill="#1e1e1e" text-anchor="start" style="white-space: pre;" direction="ltr" dominant-baseline="alphabetic">distribution in the hemisphere</text></g><g stroke-linecap="round" transform="translate(1236.9998303963516 208.39550022555957) rotate(0 69.99996609157995 28.518524169921875)"><path d="M14.26 0 C42.79 -1.49, 68.06 -0.29, 125.74 0 M14.26 0 C53.5 1.1, 93.42 -0.16, 125.74 0 M125.74 0 C135.45 0.93, 138.39 2.81, 140 14.26 M125.74 0 C135.45 0.16, 141.55 4.58, 140 14.26 M140 14.26 C141.37 19.51, 139.79 24.47, 140 42.78 M140 14.26 C139.2 20.11, 140.01 27.56, 140 42.78 M140 42.78 C139.94 53.01, 133.58 56.78, 125.74 57.04 M140 42.78 C139.39 54.57, 134.56 56.06, 125.74 57.04 M125.74 57.04 C88.55 58.56, 47.73 56.72, 14.26 57.04 M125.74 57.04 C93.9 56.38, 61.75 56.7, 14.26 57.04 M14.26 57.04 C3.99 56.55, 0.63 53.48, 0 42.78 M14.26 57.04 C6.84 58.05, 1.48 53.6, 0 42.78 M0 42.78 C0.35 34.39, 0.06 31.12, 0 14.26 M0 42.78 C0.17 35.25, -0.02 27.83, 0 14.26 M0 14.26 C1.61 5.65, 3.67 0.68, 14.26 0 M0 14.26 C-1.86 5.18, 3.66 1.52, 14.26 0" stroke="#1e1e1e" stroke-width="2" fill="none"></path></g><g transform="translate(1258.659845926408 224.41402439548145) rotate(0 48.33995056152344 12.5)"><text x="48.33995056152344" y="17.52" font-family="Virgil, Segoe UI Emoji" font-size="20px" fill="#1e1e1e" text-anchor="middle" style="white-space: pre;" direction="ltr" dominant-baseline="alphabetic">Integrate</text></g><g transform="translate(1222.5104000613933 278.93790084445106) rotate(0 89.58988952636719 25)"><text x="0" y="17.52" font-family="Virgil, Segoe UI Emoji" font-size="20px" fill="#1e1e1e" text-anchor="start" style="white-space: pre;" direction="ltr" dominant-baseline="alphabetic">in real application,</text><text x="0" y="42.519999999999996" font-family="Virgil, Segoe UI Emoji" font-size="20px" fill="#1e1e1e" text-anchor="start" style="white-space: pre;" direction="ltr" dominant-baseline="alphabetic">use approximation</text></g><g stroke-linecap="round"><g transform="translate(934.5732555657128 118.08460574799167) rotate(0 41.32113240380693 1.0418404900143798)"><path d="M-0.17 -0.93 C13.85 -0.41, 69.78 2.09, 83.71 2.47 M-1.72 1.2 C12.28 1.4, 69.2 0.37, 83.33 0.54" stroke="#1e1e1e" stroke-width="2" fill="none"></path></g><g transform="translate(934.5732555657128 118.08460574799167) rotate(0 41.32113240380693 1.0418404900143798)"><path d="M59.88 9.21 C64.59 8.73, 72.99 5.92, 83.33 0.54 M59.88 9.21 C65.5 7.3, 71.38 5.33, 83.33 0.54" stroke="#1e1e1e" stroke-width="2" fill="none"></path></g><g transform="translate(934.5732555657128 118.08460574799167) rotate(0 41.32113240380693 1.0418404900143798)"><path d="M59.8 -7.9 C64.44 -3.84, 72.86 -2.12, 83.33 0.54 M59.8 -7.9 C65.29 -5.77, 71.19 -3.72, 83.33 0.54" stroke="#1e1e1e" stroke-width="2" fill="none"></path></g></g><mask></mask><g stroke-linecap="round"><g transform="translate(932.5732555657128 264.3346487716806) rotate(0 151.71328741531948 -9.356657670850211)"><path d="M0 -0.24 C50.43 -3.38, 252.93 -15.33, 303.46 -18.4 M-1.46 -1.41 C48.74 -4.96, 251.9 -17.7, 302.53 -20.36" stroke="#1e1e1e" stroke-width="2" fill="none"></path></g><g transform="translate(932.5732555657128 264.3346487716806) rotate(0 151.71328741531948 -9.356657670850211)"><path d="M279.58 -10.45 C287.65 -14.07, 297.06 -18.15, 302.53 -20.36 M279.58 -10.45 C286.43 -13.11, 293.54 -16.98, 302.53 -20.36" stroke="#1e1e1e" stroke-width="2" fill="none"></path></g><g transform="translate(932.5732555657128 264.3346487716806) rotate(0 151.71328741531948 -9.356657670850211)"><path d="M278.58 -27.53 C287.08 -24.82, 296.86 -22.58, 302.53 -20.36 M278.58 -27.53 C285.72 -25.03, 293.13 -23.76, 302.53 -20.36" stroke="#1e1e1e" stroke-width="2" fill="none"></path></g></g><mask></mask><g stroke-linecap="round"><g transform="translate(286.36872263855764 131.01415507609855) rotate(0 114.88178470279195 27.440991415440777)"><path d="M0.71 -0.17 C38.68 8.84, 190.23 45.76, 228.6 54.97 M-0.38 -1.31 C37.88 7.84, 192.17 46.92, 230.7 56.55" stroke="#1e1e1e" stroke-width="2" fill="none"></path></g><g transform="translate(286.36872263855764 131.01415507609855) rotate(0 114.88178470279195 27.440991415440777)"><path d="M205.83 59.11 C214.54 56.09, 224 59.07, 230.7 56.55 M205.83 59.11 C213.62 58.75, 221.57 57.81, 230.7 56.55" stroke="#1e1e1e" stroke-width="2" fill="none"></path></g><g transform="translate(286.36872263855764 131.01415507609855) rotate(0 114.88178470279195 27.440991415440777)"><path d="M210 42.52 C217.32 45.55, 225.26 54.54, 230.7 56.55 M210 42.52 C216.54 47.45, 223.18 51.75, 230.7 56.55" stroke="#1e1e1e" stroke-width="2" fill="none"></path></g></g><mask></mask><g stroke-linecap="round"><g transform="translate(686.0177271368931 193.07765466559786) rotate(0 35.925937228732664 -31.481475830078125)"><path d="M0.56 -0.82 C12.85 -11.31, 60.69 -52.29, 72.61 -62.79 M-0.61 1.37 C11.7 -8.92, 60.06 -50.45, 72.05 -61.16" stroke="#1e1e1e" stroke-width="2" fill="none"></path></g><g transform="translate(686.0177271368931 193.07765466559786) rotate(0 35.925937228732664 -31.481475830078125)"><path d="M59.98 -39.27 C61.05 -42.54, 65.17 -47.93, 72.05 -61.16 M59.98 -39.27 C62.07 -44.36, 65.68 -49.62, 72.05 -61.16" stroke="#1e1e1e" stroke-width="2" fill="none"></path></g><g transform="translate(686.0177271368931 193.07765466559786) rotate(0 35.925937228732664 -31.481475830078125)"><path d="M48.73 -52.16 C52.12 -52.84, 58.53 -55.61, 72.05 -61.16 M48.73 -52.16 C53.39 -54.33, 59.59 -56.61, 72.05 -61.16" stroke="#1e1e1e" stroke-width="2" fill="none"></path></g></g><mask></mask><g stroke-linecap="round"><g transform="translate(272.7426632239747 273.11012813097125) rotate(0 122.05184736333936 -36.1888765090047)"><path d="M0.88 0.93 C41.59 -11, 204.3 -60.17, 244.95 -72.45 M-0.12 0.38 C40.44 -11.28, 203.7 -58.95, 244.45 -70.94" stroke="#1e1e1e" stroke-width="2" fill="none"></path></g><g transform="translate(272.7426632239747 273.11012813097125) rotate(0 122.05184736333936 -36.1888765090047)"><path d="M224.31 -56.14 C233.19 -60.18, 238.74 -65.76, 244.45 -70.94 M224.31 -56.14 C229.12 -60.53, 235.21 -63.62, 244.45 -70.94" stroke="#1e1e1e" stroke-width="2" fill="none"></path></g><g transform="translate(272.7426632239747 273.11012813097125) rotate(0 122.05184736333936 -36.1888765090047)"><path d="M219.5 -72.55 C229.99 -70.74, 237.27 -70.44, 244.45 -70.94 M219.5 -72.55 C225.46 -72.47, 232.85 -71.12, 244.45 -70.94" stroke="#1e1e1e" stroke-width="2" fill="none"></path></g></g><mask></mask><g stroke-linecap="round"><g transform="translate(689.2398510246971 193.11764264724368) rotate(0 33.94449361165351 27.283893417196765)"><path d="M1.15 -0.43 C12.46 8.89, 56.06 46.37, 67.21 55.5 M0.3 -1.7 C12.06 7.33, 58.39 44.33, 69.56 53.87" stroke="#1e1e1e" stroke-width="2" fill="none"></path></g><g transform="translate(689.2398510246971 193.11764264724368) rotate(0 33.94449361165351 27.283893417196765)"><path d="M45.98 45.57 C51.02 46.25, 59.09 49.63, 69.56 53.87 M45.98 45.57 C52.79 48.15, 59.27 49.4, 69.56 53.87" stroke="#1e1e1e" stroke-width="2" fill="none"></path></g><g transform="translate(689.2398510246971 193.11764264724368) rotate(0 33.94449361165351 27.283893417196765)"><path d="M56.83 32.35 C59.16 36.38, 64.57 43.01, 69.56 53.87 M56.83 32.35 C60.48 38.71, 63.9 43.69, 69.56 53.87" stroke="#1e1e1e" stroke-width="2" fill="none"></path></g></g><mask></mask><g stroke-linecap="round" transform="translate(528.3520884924113 396.83941773167487) rotate(0 88.66667175292969 41.764886708775805)"><path d="M20.88 0 C51.21 -1.07, 83.07 -0.44, 156.45 0 M20.88 0 C59.8 -0.38, 98.62 -1.17, 156.45 0 M156.45 0 C168.38 1.44, 175.34 8.15, 177.33 20.88 M156.45 0 C168.69 0.71, 178.84 4.96, 177.33 20.88 M177.33 20.88 C176.24 36.15, 177.99 49.91, 177.33 62.65 M177.33 20.88 C178.06 34.4, 177.2 48.23, 177.33 62.65 M177.33 62.65 C176.86 76.37, 171.68 82.99, 156.45 83.53 M177.33 62.65 C177.22 78.12, 170.12 82.28, 156.45 83.53 M156.45 83.53 C102.78 81.37, 49.27 82.32, 20.88 83.53 M156.45 83.53 C108.79 83.16, 59.51 83.23, 20.88 83.53 M20.88 83.53 C6.98 83.04, 0.69 76.41, 0 62.65 M20.88 83.53 C7.2 83.24, 1.93 78.55, 0 62.65 M0 62.65 C-2.14 48.2, -1.1 35.28, 0 20.88 M0 62.65 C0.24 46.32, -0.2 29.22, 0 20.88 M0 20.88 C-0.48 8.88, 7.57 -0.57, 20.88 0 M0 20.88 C-1.2 7.02, 7.17 1.67, 20.88 0" stroke="#1e1e1e" stroke-width="2" fill="none"></path></g><g transform="translate(551.5788340978801 413.60430444045073) rotate(0 65.43992614746094 25)"><text x="65.43992614746094" y="17.52" font-family="Virgil, Segoe UI Emoji" font-size="20px" fill="#1e1e1e" text-anchor="middle" style="white-space: pre;" direction="ltr" dominant-baseline="alphabetic">Lookup Table</text><text x="65.43992614746094" y="42.519999999999996" font-family="Virgil, Segoe UI Emoji" font-size="20px" fill="#1e1e1e" text-anchor="middle" style="white-space: pre;" direction="ltr" dominant-baseline="alphabetic">(M)</text></g><g stroke-linecap="round" transform="translate(174.00513992844577 438.22948226528626) rotate(0 87 32.33332824707031)"><path d="M16.17 0 C54.15 1.23, 95.41 0.72, 157.83 0 M16.17 0 C69.41 0.68, 123.09 0.46, 157.83 0 M157.83 0 C169.57 -0.82, 175.4 4.2, 174 16.17 M157.83 0 C169.46 0.98, 174.04 7.56, 174 16.17 M174 16.17 C175.27 27.27, 173.93 38.25, 174 48.5 M174 16.17 C173.74 27.06, 173.63 38.1, 174 48.5 M174 48.5 C172.44 61.08, 169.22 63.01, 157.83 64.67 M174 48.5 C176.2 61.22, 168.09 64.65, 157.83 64.67 M157.83 64.67 C120.21 63.27, 83.7 64.18, 16.17 64.67 M157.83 64.67 C106.92 64.34, 53.61 64.66, 16.17 64.67 M16.17 64.67 C4.2 66.58, -1.03 58.18, 0 48.5 M16.17 64.67 C4.67 65.56, 1.44 60.84, 0 48.5 M0 48.5 C-0.74 35.14, -0.57 24.53, 0 16.17 M0 48.5 C-0.88 41.09, 0.14 36.39, 0 16.17 M0 16.17 C0.67 7.01, 7.26 1.98, 16.17 0 M0 16.17 C-0.06 3.52, 5.38 0.47, 16.17 0" stroke="#1e1e1e" stroke-width="2" fill="none"></path></g><g transform="translate(199.49520645676608 458.0628105123566) rotate(0 61.50993347167969 12.5)"><text x="61.50993347167969" y="17.52" font-family="Virgil, Segoe UI Emoji" font-size="20px" fill="#1e1e1e" text-anchor="middle" style="white-space: pre;" direction="ltr" dominant-baseline="alphabetic">Roughness^2</text></g><g stroke-linecap="round" transform="translate(163.33845291672702 526.8961387594269) rotate(0 96.66667175292969 42.5)"><path d="M21.25 0 C72.79 -1.48, 129.75 -0.42, 172.08 0 M21.25 0 C52.55 -0.18, 84.75 -0.1, 172.08 0 M172.08 0 C187.11 0.96, 192.26 7.05, 193.33 21.25 M172.08 0 C185.09 -2.26, 191.76 6.21, 193.33 21.25 M193.33 21.25 C194.99 36.29, 195.24 48.71, 193.33 63.75 M193.33 21.25 C193.19 30.67, 192.88 39.17, 193.33 63.75 M193.33 63.75 C195.02 79.47, 185.44 86.03, 172.08 85 M193.33 63.75 C193.82 76.14, 185.22 86.68, 172.08 85 M172.08 85 C116.22 84.1, 58.29 87.49, 21.25 85 M172.08 85 C140.96 84.66, 110.28 83.58, 21.25 85 M21.25 85 C5.73 85.17, 0.34 77.05, 0 63.75 M21.25 85 C7.52 85.73, 0.58 80.19, 0 63.75 M0 63.75 C-0.82 52.2, 0.53 42.43, 0 21.25 M0 63.75 C1.09 52.59, -0.64 42.96, 0 21.25 M0 21.25 C-0.17 8.47, 8.35 -1.72, 21.25 0 M0 21.25 C-0.95 6.32, 6.13 1.93, 21.25 0" stroke="#1e1e1e" stroke-width="2" fill="none"></path></g><g transform="translate(178.3452125602817 544.3961387594269) rotate(0 81.659912109375 25)"><text x="81.659912109375" y="17.52" font-family="Virgil, Segoe UI Emoji" font-size="20px" fill="#1e1e1e" text-anchor="middle" style="white-space: pre;" direction="ltr" dominant-baseline="alphabetic">Theta</text><text x="81.659912109375" y="42.519999999999996" font-family="Virgil, Segoe UI Emoji" font-size="20px" fill="#1e1e1e" text-anchor="middle" style="white-space: pre;" direction="ltr" dominant-baseline="alphabetic">(Elevation Angle)</text></g><g stroke-linecap="round" transform="translate(146.00513992844577 402.22948226528626) rotate(0 115.33332824707031 124)"><path d="M32 0 C79.1 0.6, 131.27 -1.29, 198.67 0 M32 0 C89.84 1.18, 149.31 2.4, 198.67 0 M198.67 0 C221.41 1.3, 229.48 9.64, 230.67 32 M198.67 0 C219.58 0.92, 229.79 11.18, 230.67 32 M230.67 32 C230.89 97.31, 230.76 161.31, 230.67 216 M230.67 32 C231.31 69.7, 231.52 108.75, 230.67 216 M230.67 216 C229.26 236.24, 220.93 248.88, 198.67 248 M230.67 216 C229.16 238.2, 218.97 248.02, 198.67 248 M198.67 248 C138.85 245.53, 77.6 247.73, 32 248 M198.67 248 C157.54 248.01, 114.46 246.81, 32 248 M32 248 C10.08 247.63, -1.46 235.55, 0 216 M32 248 C9.76 249.04, 0.49 236.31, 0 216 M0 216 C1.19 157.1, -1.45 93.19, 0 32 M0 216 C0.14 153.55, 0.93 92.99, 0 32 M0 32 C-1.33 12.16, 9.63 -1.35, 32 0 M0 32 C-0.36 12.88, 10.06 -1.41, 32 0" stroke="#1e1e1e" stroke-width="2" fill="none"></path></g><g stroke-linecap="round"><g transform="translate(210.8888625772525 296.33913210058995) rotate(0 17.18272470045799 52.44517508234816)"><path d="M1.04 -0.99 C6.67 16.55, 28.36 87.63, 33.85 105.36 M0.12 1.1 C5.55 18.27, 27.15 86.45, 32.63 103.49" stroke="#1e1e1e" stroke-width="2" fill="none"></path></g><g transform="translate(210.8888625772525 296.33913210058995) rotate(0 17.18272470045799 52.44517508234816)"><path d="M17.35 83.7 C20.38 88.74, 27.47 95.01, 32.63 103.49 M17.35 83.7 C23.29 90.52, 27.44 97.01, 32.63 103.49" stroke="#1e1e1e" stroke-width="2" fill="none"></path></g><g transform="translate(210.8888625772525 296.33913210058995) rotate(0 17.18272470045799 52.44517508234816)"><path d="M33.64 78.51 C31.71 85.27, 33.84 93.12, 32.63 103.49 M33.64 78.51 C34.04 87.12, 32.61 95.4, 32.63 103.49" stroke="#1e1e1e" stroke-width="2" fill="none"></path></g></g><mask></mask><g stroke-linecap="round"><g transform="translate(377.6717964225864 504.7799473995233) rotate(0 72.34014603491244 -22.15207990270511)"><path d="M1.11 0.6 C25.16 -6.87, 121.55 -37.24, 145.42 -44.88 M0.23 -0.13 C24.09 -7.44, 121.01 -36.26, 144.87 -43.64" stroke="#1e1e1e" stroke-width="2" fill="none"></path></g><g transform="translate(377.6717964225864 504.7799473995233) rotate(0 72.34014603491244 -22.15207990270511)"><path d="M124.86 -28.66 C133.72 -33.49, 139.62 -41.2, 144.87 -43.64 M124.86 -28.66 C130.35 -32, 134.72 -34.61, 144.87 -43.64" stroke="#1e1e1e" stroke-width="2" fill="none"></path></g><g transform="translate(377.6717964225864 504.7799473995233) rotate(0 72.34014603491244 -22.15207990270511)"><path d="M119.9 -45.02 C130.71 -43.47, 138.55 -44.75, 144.87 -43.64 M119.9 -45.02 C126.37 -44.74, 131.84 -43.72, 144.87 -43.64" stroke="#1e1e1e" stroke-width="2" fill="none"></path></g></g><mask></mask><g stroke-linecap="round"><g transform="translate(615.157192808588 394.17279175511237) rotate(0 -5.67386262479144 -85.75659572913776)"><path d="M-0.82 0.43 C-2.43 -27.97, -8.3 -142.14, -10.17 -170.75 M0.95 -0.38 C-0.66 -29.09, -8.75 -144.24, -10.5 -172.47" stroke="#1e1e1e" stroke-width="2" fill="none"></path></g><g transform="translate(615.157192808588 394.17279175511237) rotate(0 -5.67386262479144 -85.75659572913776)"><path d="M-0.41 -149.6 C-2.2 -153.54, -4.22 -162.55, -10.5 -172.47 M-0.41 -149.6 C-3.26 -156.52, -6.78 -165.34, -10.5 -172.47" stroke="#1e1e1e" stroke-width="2" fill="none"></path></g><g transform="translate(615.157192808588 394.17279175511237) rotate(0 -5.67386262479144 -85.75659572913776)"><path d="M-17.47 -148.46 C-14.9 -152.58, -12.58 -161.88, -10.5 -172.47 M-17.47 -148.46 C-14.79 -155.73, -12.77 -164.92, -10.5 -172.47" stroke="#1e1e1e" stroke-width="2" fill="none"></path></g></g><mask></mask><g stroke-linecap="round"><g transform="translate(862.5128724663531 593.1313953158209) rotate(0 -105.59307159587502 -55.36255605455449)"><path d="M-0.31 -0.69 C-35.79 -18.96, -176.86 -91.52, -211.85 -109.88 M1.73 1.56 C-33.45 -17.01, -174.11 -93.03, -209.48 -111.56" stroke="#1e1e1e" stroke-width="2" fill="none"></path></g><g transform="translate(862.5128724663531 593.1313953158209) rotate(0 -105.59307159587502 -55.36255605455449)"><path d="M-184.73 -108.06 C-195.49 -110.58, -202.54 -109.25, -209.48 -111.56 M-184.73 -108.06 C-191 -108.46, -198.26 -109.4, -209.48 -111.56" stroke="#1e1e1e" stroke-width="2" fill="none"></path></g><g transform="translate(862.5128724663531 593.1313953158209) rotate(0 -105.59307159587502 -55.36255605455449)"><path d="M-192.78 -92.97 C-200.37 -101.33, -204.3 -105.85, -209.48 -111.56 M-192.78 -92.97 C-196.82 -97.76, -201.78 -103.03, -209.48 -111.56" stroke="#1e1e1e" stroke-width="2" fill="none"></path></g></g><mask></mask><g transform="translate(854.5629679206759 484.42438667013755) rotate(0 134.33984375 25)"><text x="0" y="17.52" font-family="Virgil, Segoe UI Emoji" font-size="20px" fill="#1e1e1e" text-anchor="start" style="white-space: pre;" direction="ltr" dominant-baseline="alphabetic">inversed and parameterized</text><text x="0" y="42.519999999999996" font-family="Virgil, Segoe UI Emoji" font-size="20px" fill="#1e1e1e" text-anchor="start" style="white-space: pre;" direction="ltr" dominant-baseline="alphabetic">before storing</text></g><g transform="translate(1261.1809837183164 167.04125095415972) rotate(0 41.729949951171875 12.5)"><text x="0" y="17.52" font-family="Virgil, Segoe UI Emoji" font-size="20px" fill="#1e1e1e" text-anchor="start" style="white-space: pre;" direction="ltr" dominant-baseline="alphabetic">see Eq.11</text></g><g transform="translate(10 188.32944716806506) rotate(0 26.379974365234375 12.5)"><text x="0" y="17.52" font-family="Virgil, Segoe UI Emoji" font-size="20px" fill="#1e1e1e" text-anchor="start" style="white-space: pre;" direction="ltr" dominant-baseline="alphabetic">Input</text></g><g transform="translate(228.31418436205666 322.79855710199695) rotate(0 54.86993408203125 12.499999999999972)"><text x="0" y="17.52" font-family="Virgil, Segoe UI Emoji" font-size="20px" fill="#1e1e1e" text-anchor="start" style="white-space: pre;" direction="ltr" dominant-baseline="alphabetic">breaks into</text></g><g transform="translate(741.3606057142681 10) rotate(0 115.06986999511719 25)"><text x="0" y="17.52" font-family="Virgil, Segoe UI Emoji" font-size="20px" fill="#1e1e1e" text-anchor="start" style="white-space: pre;" direction="ltr" dominant-baseline="alphabetic">"original" means the one</text><text x="0" y="42.519999999999996" font-family="Virgil, Segoe UI Emoji" font-size="20px" fill="#1e1e1e" text-anchor="start" style="white-space: pre;" direction="ltr" dominant-baseline="alphabetic">easier to evaluate</text></g><g stroke-linecap="round" transform="translate(1019.3565579056492 93.85205045181246) rotate(0 70.25440055470176 34.371787770494336)"><path d="M17.19 0 C58.84 0.66, 98.6 -0.98, 123.32 0 M17.19 0 C44.86 0.84, 74.73 0.67, 123.32 0 M123.32 0 C134.23 -1.66, 141.33 6.27, 140.51 17.19 M123.32 0 C133 -0.39, 140.71 6.87, 140.51 17.19 M140.51 17.19 C139.45 26.28, 138.93 34.65, 140.51 51.56 M140.51 17.19 C140.1 28.06, 141.32 39.29, 140.51 51.56 M140.51 51.56 C141.58 63.52, 133.74 67.45, 123.32 68.74 M140.51 51.56 C138.7 64.13, 135.71 69.59, 123.32 68.74 M123.32 68.74 C92.7 71.62, 56.98 71.3, 17.19 68.74 M123.32 68.74 C83.3 69.06, 42.01 68.28, 17.19 68.74 M17.19 68.74 C4.35 68.25, 0.81 64.67, 0 51.56 M17.19 68.74 C7.92 68.23, 0.72 64.11, 0 51.56 M0 51.56 C0.51 40.53, 2.28 31.49, 0 17.19 M0 51.56 C0.95 39.21, 1.15 25.63, 0 17.19 M0 17.19 C1.38 5.8, 6.55 1.14, 17.19 0 M0 17.19 C-1 7.53, 6.05 1.77, 17.19 0" stroke="#1e1e1e" stroke-width="2" fill="none"></path></g><g transform="translate(1073.4209789071283 115.7238382223068) rotate(0 16.189979553222656 12.5)"><text x="16.189979553222656" y="17.52" font-family="Virgil, Segoe UI Emoji" font-size="20px" fill="#1e1e1e" text-anchor="middle" style="white-space: pre;" direction="ltr" dominant-baseline="alphabetic">Clip</text></g><g stroke-linecap="round"><g transform="translate(1160.8653590150527 132.63097871969458) rotate(0 37.271247793053135 56.50721357461998)"><path d="M-1.17 0.3 C11.38 18.92, 62.47 93.84, 75.13 112.73 M0.42 -0.58 C12.87 18.73, 62.2 95.42, 74.48 114.11" stroke="#1e1e1e" stroke-width="2" fill="none"></path></g><g transform="translate(1160.8653590150527 132.63097871969458) rotate(0 37.271247793053135 56.50721357461998)"><path d="M54.52 99.06 C60.93 104.58, 65.72 108.36, 74.48 114.11 M54.52 99.06 C60.68 105.02, 68.19 109.36, 74.48 114.11" stroke="#1e1e1e" stroke-width="2" fill="none"></path></g><g transform="translate(1160.8653590150527 132.63097871969458) rotate(0 37.271247793053135 56.50721357461998)"><path d="M68.87 89.75 C71.21 97.82, 71.85 104.3, 74.48 114.11 M68.87 89.75 C69.95 99.06, 72.43 106.68, 74.48 114.11" stroke="#1e1e1e" stroke-width="2" fill="none"></path></g></g><mask></mask><g transform="translate(1028.0364424075174 36.65001057015937) rotate(0 110.619873046875 25)"><text x="0" y="17.52" font-family="Virgil, Segoe UI Emoji" font-size="20px" fill="#1e1e1e" text-anchor="start" style="white-space: pre;" direction="ltr" dominant-baseline="alphabetic">surfaces won't receive</text><text x="0" y="42.519999999999996" font-family="Virgil, Segoe UI Emoji" font-size="20px" fill="#1e1e1e" text-anchor="start" style="white-space: pre;" direction="ltr" dominant-baseline="alphabetic">light below them</text></g><g transform="translate(719.0359575506387 426.61311538139216) rotate(0 120.61986541748047 12.5)"><text x="0" y="17.52" font-family="Virgil, Segoe UI Emoji" font-size="20px" fill="#1e1e1e" text-anchor="start" style="white-space: pre;" direction="ltr" dominant-baseline="alphabetic">a 64*64 f32*4 texture</text></g><g transform="translate(186.68478741657134 773.0080932284048) rotate(0 116.18986511230469 12.5)"><text x="0" y="17.52" font-family="Virgil, Segoe UI Emoji" font-size="20px" fill="#1e1e1e" text-anchor="start" style="white-space: pre;" direction="ltr" dominant-baseline="alphabetic">Rougness loop over 0~1</text></g><g transform="translate(191.7846182757181 818.9117979562337) rotate(0 119.4798583984375 12.5)"><text x="0" y="17.52" font-family="Virgil, Segoe UI Emoji" font-size="20px" fill="#1e1e1e" text-anchor="start" style="white-space: pre;" direction="ltr" dominant-baseline="alphabetic">Theta loop over 0~pi/2</text></g><g stroke-linecap="round" transform="translate(1198.7805535576597 482.620829840649) rotate(0 88.66667175292969 41.764886708775805)"><path d="M20.88 0 C53.01 0.73, 87.17 -1.32, 156.45 0 M20.88 0 C68.48 1.78, 114.29 0.48, 156.45 0 M156.45 0 C169.56 -1.43, 178.47 7.55, 177.33 20.88 M156.45 0 C170.87 1.34, 175.62 9.18, 177.33 20.88 M177.33 20.88 C179.35 37.91, 178.47 53.77, 177.33 62.65 M177.33 20.88 C176.52 30.21, 176.12 39.67, 177.33 62.65 M177.33 62.65 C175.77 78.06, 168.47 85.42, 156.45 83.53 M177.33 62.65 C175.36 76.68, 172.64 85.74, 156.45 83.53 M156.45 83.53 C109.53 83.41, 63.02 82.93, 20.88 83.53 M156.45 83.53 C118.58 83.5, 80.86 84.39, 20.88 83.53 M20.88 83.53 C8.81 81.74, -0.38 74.88, 0 62.65 M20.88 83.53 C8.26 83.56, -1.47 75.96, 0 62.65 M0 62.65 C-1.26 48.89, -0.47 32.4, 0 20.88 M0 62.65 C-0.57 45.76, 0.39 30.33, 0 20.88 M0 20.88 C1.56 7.54, 6 0.71, 20.88 0 M0 20.88 C-2.21 4.9, 7.28 1.84, 20.88 0" stroke="#1e1e1e" stroke-width="2" fill="none"></path></g><g transform="translate(1222.0072991631284 499.38571654942484) rotate(0 65.43992614746094 25)"><text x="65.43992614746094" y="17.52" font-family="Virgil, Segoe UI Emoji" font-size="20px" fill="#1e1e1e" text-anchor="middle" style="white-space: pre;" direction="ltr" dominant-baseline="alphabetic">Lookup Table</text><text x="65.43992614746094" y="42.519999999999996" font-family="Virgil, Segoe UI Emoji" font-size="20px" fill="#1e1e1e" text-anchor="middle" style="white-space: pre;" direction="ltr" dominant-baseline="alphabetic">(Amplitude)</text></g><g stroke-linecap="round"><g transform="translate(1375.6948398088707 239.99186624897973) rotate(0 52.20268970411746 1.6441925375565063)"><path d="M1.18 -1.17 C18.71 -0.65, 87.99 2.39, 105.29 3.17 M0.35 0.84 C17.78 1.54, 87.44 3.96, 104.8 4.65" stroke="#1e1e1e" stroke-width="2" fill="none"></path></g><g transform="translate(1375.6948398088707 239.99186624897973) rotate(0 52.20268970411746 1.6441925375565063)"><path d="M81.01 12.33 C86.46 11.17, 95.62 8.26, 104.8 4.65 M81.01 12.33 C89.7 9.34, 97.25 7.43, 104.8 4.65" stroke="#1e1e1e" stroke-width="2" fill="none"></path></g><g transform="translate(1375.6948398088707 239.99186624897973) rotate(0 52.20268970411746 1.6441925375565063)"><path d="M81.64 -4.76 C86.91 -0.59, 95.87 1.81, 104.8 4.65 M81.64 -4.76 C89.98 -2.27, 97.33 1.31, 104.8 4.65" stroke="#1e1e1e" stroke-width="2" fill="none"></path></g></g><mask></mask><g stroke-linecap="round" transform="translate(1486.6770646319187 204.6419713014224) rotate(0 122.08032688201365 40.61343760133434)"><path d="M20.31 0 C83.6 -0.72, 142.57 -0.55, 223.85 0 M20.31 0 C83.11 1.48, 146.88 0.85, 223.85 0 M223.85 0 C238.55 1.04, 242.88 7.69, 244.16 20.31 M223.85 0 C237.71 1.88, 245.2 7.53, 244.16 20.31 M244.16 20.31 C244.54 32.63, 245.91 48.35, 244.16 60.92 M244.16 20.31 C244.6 34.37, 244.41 49.98, 244.16 60.92 M244.16 60.92 C243.31 73.44, 238.86 82.98, 223.85 81.23 M244.16 60.92 C243.8 76.44, 237.11 82.56, 223.85 81.23 M223.85 81.23 C158.54 80.95, 94.86 82.59, 20.31 81.23 M223.85 81.23 C182.22 80.31, 139.83 80.37, 20.31 81.23 M20.31 81.23 C7.38 81.58, -0.51 76.34, 0 60.92 M20.31 81.23 C8.28 81.69, -1.41 75.72, 0 60.92 M0 60.92 C-1.78 46.27, -1.26 30.55, 0 20.31 M0 60.92 C1.11 49.67, 0.94 36.51, 0 20.31 M0 20.31 C-1.04 5.81, 8.54 1.81, 20.31 0 M0 20.31 C0.35 6.98, 8.95 0.44, 20.31 0" stroke="#1e1e1e" stroke-width="2" fill="none"></path></g><g transform="translate(1507.7975068703777 220.25540890275673) rotate(0 100.95988464355469 25)"><text x="100.95988464355469" y="17.52" font-family="Virgil, Segoe UI Emoji" font-size="20px" fill="#1e1e1e" text-anchor="middle" style="white-space: pre;" direction="ltr" dominant-baseline="alphabetic">Multiply by Amplitude</text><text x="100.95988464355469" y="42.519999999999996" font-family="Virgil, Segoe UI Emoji" font-size="20px" fill="#1e1e1e" text-anchor="middle" style="white-space: pre;" direction="ltr" dominant-baseline="alphabetic">(Specular Lobe Only)</text></g><g stroke-linecap="round"><g transform="translate(1734.126065838765 239.74878190183077) rotate(0 39.049262300545934 1.5854591866221313)"><path d="M-1 0.2 C11.79 0.59, 64.61 1.84, 77.87 2.4 M0.67 -0.74 C13.19 -0.22, 63.9 3.17, 76.8 3.54" stroke="#1e1e1e" stroke-width="2" fill="none"></path></g><g transform="translate(1734.126065838765 239.74878190183077) rotate(0 39.049262300545934 1.5854591866221313)"><path d="M52.91 10.91 C62.57 7.84, 70.3 6.1, 76.8 3.54 M52.91 10.91 C60.5 8.31, 68.74 6, 76.8 3.54" stroke="#1e1e1e" stroke-width="2" fill="none"></path></g><g transform="translate(1734.126065838765 239.74878190183077) rotate(0 39.049262300545934 1.5854591866221313)"><path d="M53.76 -6.17 C63.11 -2.57, 70.5 2.37, 76.8 3.54 M53.76 -6.17 C61.17 -3.07, 69.12 0.33, 76.8 3.54" stroke="#1e1e1e" stroke-width="2" fill="none"></path></g></g><mask></mask><g stroke-linecap="round"><g transform="translate(1290.801965012528 481.620829840649) rotate(0 144.10542490502507 -96.97385934658593)"><path d="M-0.89 0.93 C47.36 -31.32, 241.29 -160.58, 289.38 -192.86 M0.84 0.37 C49.05 -32.24, 241.42 -161.93, 289.04 -194.4" stroke="#1e1e1e" stroke-width="2" fill="none"></path></g><g transform="translate(1290.801965012528 481.620829840649) rotate(0 144.10542490502507 -96.97385934658593)"><path d="M274.39 -174.15 C280.06 -177.95, 284.57 -186.72, 289.04 -194.4 M274.39 -174.15 C279.79 -182.69, 285.5 -189.62, 289.04 -194.4" stroke="#1e1e1e" stroke-width="2" fill="none"></path></g><g transform="translate(1290.801965012528 481.620829840649) rotate(0 144.10542490502507 -96.97385934658593)"><path d="M264.8 -188.31 C273.31 -187.94, 280.59 -192.62, 289.04 -194.4 M264.8 -188.31 C274.09 -191.2, 283.63 -192.46, 289.04 -194.4" stroke="#1e1e1e" stroke-width="2" fill="none"></path></g></g><mask></mask><g transform="translate(1389.3089927983278 516.0735181210264) rotate(0 121.3398666381836 12.5)"><text x="0" y="17.52" font-family="Virgil, Segoe UI Emoji" font-size="20px" fill="#1e1e1e" text-anchor="start" style="white-space: pre;" direction="ltr" dominant-baseline="alphabetic">a 64*64 f32*2 texture</text></g><g transform="translate(1192.5709686545135 583.4770136627276) rotate(0 308.98968505859375 25)"><text x="0" y="17.52" font-family="Virgil, Segoe UI Emoji" font-size="20px" fill="#1e1e1e" text-anchor="start" style="white-space: pre;" direction="ltr" dominant-baseline="alphabetic">red channel: specular amplitude</text><text x="0" y="42.519999999999996" font-family="Virgil, Segoe UI Emoji" font-size="20px" fill="#1e1e1e" text-anchor="start" style="white-space: pre;" direction="ltr" dominant-baseline="alphabetic">blue channel: Fresnel term (Looks like ignored in implementation)</text></g><g stroke-linecap="round" transform="translate(541.6947254845493 800.7490698045989) rotate(0 94.07166835557652 43.438832363525876)"><path d="M21.72 0 C59.26 0.65, 100.09 -0.16, 166.42 0 M21.72 0 C60.77 0.87, 99.23 -0.65, 166.42 0 M166.42 0 C182.53 1.4, 187.04 8.4, 188.14 21.72 M166.42 0 C182.82 -1.09, 189.98 5.6, 188.14 21.72 M188.14 21.72 C189.53 34.27, 190 50.47, 188.14 65.16 M188.14 21.72 C189.46 36.04, 188.18 49.88, 188.14 65.16 M188.14 65.16 C189.67 79.33, 181.75 87.02, 166.42 86.88 M188.14 65.16 C189.8 79.75, 178.72 86.41, 166.42 86.88 M166.42 86.88 C127.13 88.7, 90.95 87.49, 21.72 86.88 M166.42 86.88 C131.62 87.53, 96.14 87.23, 21.72 86.88 M21.72 86.88 C8.37 86.24, -1.38 81.34, 0 65.16 M21.72 86.88 C6.11 88.71, 0.17 81.65, 0 65.16 M0 65.16 C-1.39 50.71, -1.51 36.07, 0 21.72 M0 65.16 C0.48 54.04, 0.86 41.86, 0 21.72 M0 21.72 C0.32 8.97, 9.11 -0.46, 21.72 0 M0 21.72 C0.55 8.4, 8.22 1.89, 21.72 0" stroke="#1e1e1e" stroke-width="2" fill="none"></path></g><g transform="translate(576.7364560959852 819.1879021681248) rotate(0 59.029937744140625 24.999999999999943)"><text x="59.029937744140625" y="17.52" font-family="Virgil, Segoe UI Emoji" font-size="20px" fill="#1e1e1e" text-anchor="middle" style="white-space: pre;" direction="ltr" dominant-baseline="alphabetic">Importance </text><text x="59.029937744140625" y="42.519999999999996" font-family="Virgil, Segoe UI Emoji" font-size="20px" fill="#1e1e1e" text-anchor="middle" style="white-space: pre;" direction="ltr" dominant-baseline="alphabetic">Sampling</text></g><g stroke-linecap="round" transform="translate(817.3822329067898 800.7491049577328) rotate(0 100.21511800671072 44.156098195764)"><path d="M22.08 0 C66.68 1.57, 112.92 -0.85, 178.35 0 M22.08 0 C76.03 0.74, 131.16 1.12, 178.35 0 M178.35 0 C192.25 1.74, 198.84 8.08, 200.43 22.08 M178.35 0 C193.67 -1.75, 201.12 8.94, 200.43 22.08 M200.43 22.08 C200.91 33.62, 199.17 48.65, 200.43 66.23 M200.43 22.08 C200 34.52, 199.69 47.64, 200.43 66.23 M200.43 66.23 C201.39 81.53, 193.65 88.62, 178.35 88.31 M200.43 66.23 C201.17 82.85, 191.39 88.29, 178.35 88.31 M178.35 88.31 C128.22 87.78, 77.84 89.11, 22.08 88.31 M178.35 88.31 C117.99 87.7, 57.36 87.47, 22.08 88.31 M22.08 88.31 C7.64 87.1, -0.12 81.18, 0 66.23 M22.08 88.31 C9 89.02, -1.49 81.21, 0 66.23 M0 66.23 C-0.63 52.51, 0.44 37.92, 0 22.08 M0 66.23 C0.36 49.35, 0.56 30.61, 0 22.08 M0 22.08 C-0.42 7.38, 6.26 0.79, 22.08 0 M0 22.08 C1.1 6.19, 5.19 -0.43, 22.08 0" stroke="#1e1e1e" stroke-width="2" fill="none"></path></g><g transform="translate(839.0474470438716 819.9052031534969) rotate(0 78.5499038696289 25)"><text x="78.5499038696289" y="17.52" font-family="Virgil, Segoe UI Emoji" font-size="20px" fill="#1e1e1e" text-anchor="middle" style="white-space: pre;" direction="ltr" dominant-baseline="alphabetic">Expectation of </text><text x="78.5499038696289" y="42.519999999999996" font-family="Virgil, Segoe UI Emoji" font-size="20px" fill="#1e1e1e" text-anchor="middle" style="white-space: pre;" direction="ltr" dominant-baseline="alphabetic">BRDF Lobe</text></g><g transform="translate(836.5805196577966 903.65203162091) rotate(0 86.0398941040039 12.5)"><text x="0" y="17.52" font-family="Virgil, Segoe UI Emoji" font-size="20px" fill="#1e1e1e" text-anchor="start" style="white-space: pre;" direction="ltr" dominant-baseline="alphabetic">which is amplitude</text></g><g stroke-linecap="round" transform="translate(538.8266311763248 672.3228341654849) rotate(0 84.0885472929871 37.24469317045822)"><path d="M18.62 0 C64.18 -1.41, 113.18 1.83, 149.55 0 M18.62 0 C65.05 0.89, 111.41 0.75, 149.55 0 M149.55 0 C160.58 0.58, 166.88 5.32, 168.18 18.62 M149.55 0 C163.94 -1.9, 166.86 7.85, 168.18 18.62 M168.18 18.62 C166.81 31.11, 167.35 39.62, 168.18 55.87 M168.18 18.62 C168.67 33.01, 167.59 47.45, 168.18 55.87 M168.18 55.87 C166.24 67.46, 160.68 74.6, 149.55 74.49 M168.18 55.87 C166.91 67.33, 160.64 76.51, 149.55 74.49 M149.55 74.49 C111.79 75.9, 74.52 72.75, 18.62 74.49 M149.55 74.49 C101.83 75.66, 55.48 74, 18.62 74.49 M18.62 74.49 C8.04 74.3, -0.68 69.58, 0 55.87 M18.62 74.49 C5.19 72.88, 0.74 67.39, 0 55.87 M0 55.87 C-0.14 46.63, -0.67 39.38, 0 18.62 M0 55.87 C0.13 47.29, 0.55 39.71, 0 18.62 M0 18.62 C-0.4 5.73, 5.28 -0.35, 18.62 0 M0 18.62 C1.39 6.36, 4.72 -1.72, 18.62 0" stroke="#1e1e1e" stroke-width="2" fill="none"></path></g><g transform="translate(580.3552266870854 697.067527335943) rotate(0 42.55995178222656 12.5)"><text x="42.55995178222656" y="17.52" font-family="Virgil, Segoe UI Emoji" font-size="20px" fill="#1e1e1e" text-anchor="middle" style="white-space: pre;" direction="ltr" dominant-baseline="alphabetic">Guess M</text></g><g stroke-linecap="round" transform="translate(816.4284356100906 672.5371315796318) rotate(0 98.6792775646361 45.691956214405764)"><path d="M22.85 0 C75.82 1.74, 128.54 0.75, 174.51 0 M22.85 0 C60.9 1.97, 98.17 1.57, 174.51 0 M174.51 0 C191.44 0.51, 198.94 5.82, 197.36 22.85 M174.51 0 C191.08 -0.17, 195.52 8.97, 197.36 22.85 M197.36 22.85 C198.62 38.28, 196.06 55.14, 197.36 68.54 M197.36 22.85 C197.13 36.01, 197.84 46.63, 197.36 68.54 M197.36 68.54 C196.8 82.93, 190.92 91.19, 174.51 91.38 M197.36 68.54 C197.9 85.71, 189.83 90.3, 174.51 91.38 M174.51 91.38 C134.53 90.67, 96.39 91.64, 22.85 91.38 M174.51 91.38 C124.86 93.13, 75.34 92.17, 22.85 91.38 M22.85 91.38 C7.24 91.23, -0.44 85.66, 0 68.54 M22.85 91.38 C5.71 93.07, 1.92 82.85, 0 68.54 M0 68.54 C-0.83 48.86, -1.64 33.17, 0 22.85 M0 68.54 C0.19 54.85, -0.32 42.39, 0 22.85 M0 22.85 C1.59 5.67, 6.34 -1.9, 22.85 0 M0 22.85 C-1.36 9.47, 8.3 -0.62, 22.85 0" stroke="#1e1e1e" stroke-width="2" fill="none"></path></g><g transform="translate(838.5678038119337 693.2290877940376) rotate(0 76.53990936279297 25)"><text x="76.53990936279297" y="17.52" font-family="Virgil, Segoe UI Emoji" font-size="20px" fill="#1e1e1e" text-anchor="middle" style="white-space: pre;" direction="ltr" dominant-baseline="alphabetic">Refine M Using </text><text x="76.53990936279297" y="42.519999999999996" font-family="Virgil, Segoe UI Emoji" font-size="20px" fill="#1e1e1e" text-anchor="middle" style="white-space: pre;" direction="ltr" dominant-baseline="alphabetic">Nelder Mead</text></g><g stroke-linecap="round"><g transform="translate(356.7058084275011 652.1565762110724) rotate(0 89.52455335577008 30.089110156673144)"><path d="M0.12 -0.88 C30 8.99, 150 49.68, 179.77 59.87 M-1.27 1.28 C28.47 11.27, 149.36 51.19, 179.2 61.25" stroke="#1e1e1e" stroke-width="2" fill="none"></path></g><g transform="translate(356.7058084275011 652.1565762110724) rotate(0 89.52455335577008 30.089110156673144)"><path d="M154.21 61.94 C161.28 62.87, 170.77 60.86, 179.2 61.25 M154.21 61.94 C161.2 62.11, 169.58 61.95, 179.2 61.25" stroke="#1e1e1e" stroke-width="2" fill="none"></path></g><g transform="translate(356.7058084275011 652.1565762110724) rotate(0 89.52455335577008 30.089110156673144)"><path d="M159.61 45.71 C164.93 52.2, 172.57 55.73, 179.2 61.25 M159.61 45.71 C164.78 50.85, 171.49 55.69, 179.2 61.25" stroke="#1e1e1e" stroke-width="2" fill="none"></path></g></g><mask></mask><g stroke-linecap="round"><g transform="translate(709.3075567316796 713.4541909578763) rotate(0 52.408576684216655 -0.7712658099614487)"><path d="M0.29 -0.41 C17.66 -0.57, 86.27 -0.6, 103.81 -0.64 M-1.01 -1.67 C16.75 -2.18, 88.3 -2.15, 106 -2.29" stroke="#1e1e1e" stroke-width="2" fill="none"></path></g><g transform="translate(709.3075567316796 713.4541909578763) rotate(0 52.408576684216655 -0.7712658099614487)"><path d="M82.54 6.35 C88.16 2.29, 96.68 2.87, 106 -2.29 M82.54 6.35 C92.35 3.11, 99.75 -0.18, 106 -2.29" stroke="#1e1e1e" stroke-width="2" fill="none"></path></g><g transform="translate(709.3075567316796 713.4541909578763) rotate(0 52.408576684216655 -0.7712658099614487)"><path d="M82.48 -10.75 C88.16 -10.2, 96.69 -5.01, 106 -2.29 M82.48 -10.75 C92.16 -7.54, 99.58 -4.37, 106 -2.29" stroke="#1e1e1e" stroke-width="2" fill="none"></path></g></g><mask></mask><g stroke-linecap="round"><g transform="translate(931.2594241539584 671.5371315796318) rotate(0 -2.597257456960108 -30.677692368468627)"><path d="M-1.05 -1.18 C-2.03 -11.47, -4.71 -51.86, -5.35 -61.74 M0.59 0.81 C-0.59 -9.31, -5.37 -49.88, -6.38 -60.4" stroke="#1e1e1e" stroke-width="2" fill="none"></path></g><g transform="translate(931.2594241539584 671.5371315796318) rotate(0 -2.597257456960108 -30.677692368468627)"><path d="M4.65 -37.97 C-1.07 -45.96, -3.49 -52.82, -6.38 -60.4 M4.65 -37.97 C-0.1 -46.68, -3.1 -54.2, -6.38 -60.4" stroke="#1e1e1e" stroke-width="2" fill="none"></path></g><g transform="translate(931.2594241539584 671.5371315796318) rotate(0 -2.597257456960108 -30.677692368468627)"><path d="M-12.35 -36.13 C-12.29 -44.6, -8.93 -52.08, -6.38 -60.4 M-12.35 -36.13 C-10.76 -45.45, -7.41 -53.65, -6.38 -60.4" stroke="#1e1e1e" stroke-width="2" fill="none"></path></g></g><mask></mask><g stroke-linecap="round"><g transform="translate(298.1357201713472 651.2294822652863) rotate(0 120.1380970776799 102.49059424322104)"><path d="M-0.65 -0.2 C39.6 34, 200.06 171.57, 240.28 205.86 M1.22 -1.35 C41.41 32.47, 199.51 170.05, 239.34 204.21" stroke="#1e1e1e" stroke-width="2" fill="none"></path></g><g transform="translate(298.1357201713472 651.2294822652863) rotate(0 120.1380970776799 102.49059424322104)"><path d="M215.97 195.31 C220.4 197.24, 226.92 199.76, 239.34 204.21 M215.97 195.31 C224.33 199.12, 232.27 200.94, 239.34 204.21" stroke="#1e1e1e" stroke-width="2" fill="none"></path></g><g transform="translate(298.1357201713472 651.2294822652863) rotate(0 120.1380970776799 102.49059424322104)"><path d="M227.16 182.37 C229.4 186.86, 233.66 191.98, 239.34 204.21 M227.16 182.37 C231.7 190.77, 235.71 197.13, 239.34 204.21" stroke="#1e1e1e" stroke-width="2" fill="none"></path></g></g><mask></mask><g stroke-linecap="round"><g transform="translate(731.3739026377764 842.2173944970301) rotate(0 40.70040447139468 0)"><path d="M-0.82 0.97 C12.8 1.2, 68.33 1.21, 82.12 0.9 M0.94 0.43 C14.43 0.37, 68.13 -0.67, 81.55 -0.76" stroke="#1e1e1e" stroke-width="2" fill="none"></path></g><g transform="translate(731.3739026377764 842.2173944970301) rotate(0 40.70040447139468 0)"><path d="M58.18 8.12 C67.62 6.52, 75.29 3.26, 81.55 -0.76 M58.18 8.12 C63.18 5.95, 67.79 4.76, 81.55 -0.76" stroke="#1e1e1e" stroke-width="2" fill="none"></path></g><g transform="translate(731.3739026377764 842.2173944970301) rotate(0 40.70040447139468 0)"><path d="M57.94 -8.98 C67.4 -4.88, 75.15 -2.44, 81.55 -0.76 M57.94 -8.98 C63.11 -7.36, 67.77 -4.75, 81.55 -0.76" stroke="#1e1e1e" stroke-width="2" fill="none"></path></g></g><mask></mask><g stroke-linecap="round"><g transform="translate(1018.8124689202114 838.5942633759611) rotate(0 87.26118672957466 -153.73300341547758)"><path d="M0.43 -0.16 C29.25 -51.72, 144.72 -257.01, 173.62 -308.34 M-0.81 -1.29 C28.32 -52.8, 146.33 -256.28, 175.85 -307.27" stroke="#1e1e1e" stroke-width="2" fill="none"></path></g><g transform="translate(1018.8124689202114 838.5942633759611) rotate(0 87.26118672957466 -153.73300341547758)"><path d="M171.47 -282.65 C172.58 -293.03, 172.96 -301.53, 175.85 -307.27 M171.47 -282.65 C172.91 -289.54, 173.31 -294.85, 175.85 -307.27" stroke="#1e1e1e" stroke-width="2" fill="none"></path></g><g transform="translate(1018.8124689202114 838.5942633759611) rotate(0 87.26118672957466 -153.73300341547758)"><path d="M156.68 -291.23 C163.17 -298.57, 168.86 -303.99, 175.85 -307.27 M156.68 -291.23 C161.64 -296.15, 165.59 -299.4, 175.85 -307.27" stroke="#1e1e1e" stroke-width="2" fill="none"></path></g></g><mask></mask><g transform="translate(320.091403330327 692.2693216835584) rotate(0 88.87989807128906 12.5)"><text x="0" y="17.52" font-family="Virgil, Segoe UI Emoji" font-size="20px" fill="#1e1e1e" text-anchor="start" style="white-space: pre;" direction="ltr" dominant-baseline="alphabetic">Precompute Stage</text></g><g transform="translate(330.8800217784716 183.585834906276) rotate(0 67.02992248535156 12.5)"><text x="0" y="17.52" font-family="Virgil, Segoe UI Emoji" font-size="20px" fill="#1e1e1e" text-anchor="start" style="white-space: pre;" direction="ltr" dominant-baseline="alphabetic">Shader Stage</text></g><g transform="translate(420.9013796817575 496.1066555662587) rotate(0 64.7699203491211 12.5)"><text x="0" y="17.52" font-family="Virgil, Segoe UI Emoji" font-size="20px" fill="#1e1e1e" text-anchor="start" style="white-space: pre;" direction="ltr" dominant-baseline="alphabetic">as uv, lookup</text></g><g transform="translate(2052.5122622255894 234.31445836298954) rotate(0 34.84996032714844 12.5)"><text x="0" y="17.52" font-family="Virgil, Segoe UI Emoji" font-size="20px" fill="#1e1e1e" text-anchor="start" style="white-space: pre;" direction="ltr" dominant-baseline="alphabetic">Output</text></g></svg>